<svg width="16" height="16" viewBox="0 0 16 16" fill="none" xmlns="http://www.w3.org/2000/svg">
<path d="M14.5133 3.87333C13.818 2.681 12.8746 1.73678 11.6814 1.04222C10.4891 0.347667 9.18789 0 7.77778 0C6.36767 0 5.06644 0.347667 3.87333 1.04222C2.681 1.73678 1.73678 2.681 1.04222 3.87333C0.347667 5.06567 0 6.36767 0 7.77778C0 9.18789 0.346889 10.4899 1.04222 11.6822C1.73756 12.8753 2.681 13.8188 3.87411 14.5133C5.06644 15.2079 6.36767 15.5556 7.77778 15.5556C9.18789 15.5556 10.4891 15.2079 11.6822 14.5133C12.8746 13.8188 13.8188 12.8753 14.5141 11.6822C15.2087 10.4899 15.5556 9.18789 15.5556 7.77778C15.5556 6.36767 15.2087 5.06567 14.5133 3.87333ZM7.77778 1.29111C9.33333 1.29111 10.7116 1.78889 11.9156 2.78367C11.2 3.69678 10.1376 4.44811 8.72667 5.03922C7.94733 3.62911 7.10267 2.45156 6.19033 1.50811C6.72078 1.36344 7.24811 1.29111 7.77778 1.29111ZM2.73 3.73333C3.31644 2.99678 4.018 2.422 4.83856 2.00667C5.78122 2.94078 6.64689 4.10667 7.43633 5.50667C5.88078 5.97333 4.23656 6.20667 2.50444 6.20667C2.05878 6.20667 1.722 6.19656 1.49333 6.17556C1.73211 5.28344 2.14433 4.46989 2.73 3.73333ZM1.29111 7.77778C1.29111 7.73578 1.29344 7.68445 1.29889 7.62222C1.30433 7.56 1.30667 7.50867 1.30667 7.46667C1.50422 7.47756 1.80522 7.48222 2.20967 7.48222C4.28322 7.48222 6.21211 7.19678 7.99556 6.62667C8.141 6.91678 8.29189 7.24344 8.44667 7.60667C7.42 7.83456 6.36689 8.38911 5.28811 9.27111C4.20933 10.1531 3.42222 11.081 2.92444 12.0556C1.83556 10.8212 1.29111 9.39556 1.29111 7.77778ZM7.77778 14.2644C6.30467 14.2644 4.98245 13.8079 3.81033 12.8963C4.27778 11.9731 4.99567 11.0903 5.96556 10.2511C6.93467 9.41111 7.89678 8.88767 8.85111 8.68C9.45156 10.339 9.85678 12.0548 10.0644 13.8289C9.30689 14.119 8.54467 14.2644 7.77778 14.2644ZM13.2844 11.1844C12.7664 12.0136 12.0976 12.6933 11.2778 13.223C11.0911 11.6052 10.7333 10.0287 10.2052 8.49333C10.9301 8.442 11.578 8.41556 12.1497 8.41556C12.7711 8.41556 13.461 8.442 14.2178 8.49333C14.1136 9.45778 13.8024 10.3546 13.2844 11.1844ZM12.32 7.29556C11.4178 7.29556 10.5832 7.33211 9.81556 7.40445C9.618 6.89656 9.44222 6.47656 9.28667 6.14444C10.8936 5.43978 12.0338 4.58422 12.7081 3.57778C13.6414 4.67756 14.1501 5.93211 14.2326 7.34222C13.601 7.31111 12.9632 7.29556 12.32 7.29556Z" fill="#080415"/>
</svg>
