<svg width="16" height="16" viewBox="0 0 16 16" fill="none" xmlns="http://www.w3.org/2000/svg">
<path d="M15.2691 4.50147C15.2332 3.68794 15.1017 3.12865 14.9132 2.64401C14.7188 2.12958 14.4197 1.66901 14.0278 1.28614C13.645 0.897304 13.1814 0.595165 12.6729 0.403787C12.1855 0.21533 11.6291 0.0837717 10.8155 0.0479029C9.99594 0.0089964 9.73575 0 7.65699 0C5.57824 0 5.31804 0.0089964 4.50147 0.0448652C3.68794 0.080734 3.12865 0.212409 2.64412 0.400749C2.12958 0.595165 1.66901 0.894266 1.28614 1.28614C0.897304 1.66901 0.595282 2.13262 0.403787 2.64109C0.21533 3.12865 0.0837717 3.6849 0.0479029 4.49844C0.0089964 5.31804 0 5.57824 0 7.65699C0 9.73575 0.0089964 9.99594 0.0448652 10.8125C0.080734 11.626 0.212409 12.1853 0.400866 12.67C0.595282 13.1844 0.897304 13.645 1.28614 14.0278C1.66901 14.4167 2.13262 14.7188 2.64109 14.9102C3.12865 15.0987 3.6849 15.2302 4.49855 15.2661C5.31501 15.3021 5.57532 15.3109 7.65407 15.3109C9.73282 15.3109 9.99302 15.3021 10.8096 15.2661C11.6231 15.2302 12.1824 15.0987 12.6669 14.9102C13.6959 14.5124 14.5094 13.6988 14.9073 12.67C15.0956 12.1824 15.2273 11.626 15.2632 10.8125C15.299 9.99594 15.308 9.73575 15.308 7.65699C15.308 5.57824 15.305 5.31804 15.2691 4.50147ZM13.8903 10.7527C13.8574 11.5004 13.7318 11.9042 13.6271 12.1734C13.3698 12.8404 12.8404 13.3698 12.1734 13.6271C11.9042 13.7318 11.4975 13.8574 10.7527 13.8902C9.94512 13.9262 9.70291 13.9351 7.66003 13.9351C5.61714 13.9351 5.3719 13.9262 4.56725 13.8902C3.8195 13.8574 3.41571 13.7318 3.14652 13.6271C2.81459 13.5044 2.51245 13.31 2.26721 13.0558C2.01297 12.8075 1.81856 12.5084 1.69588 12.1765C1.5912 11.9073 1.4656 11.5004 1.43277 10.7557C1.39678 9.94815 1.3879 9.70584 1.3879 7.66295C1.3879 5.62007 1.39678 5.37483 1.43277 4.57029C1.4656 3.82254 1.5912 3.41875 1.69588 3.14956C1.81856 2.81751 2.01297 2.51549 2.27025 2.27013C2.51841 2.0159 2.81751 1.82148 3.14956 1.69892C3.41875 1.59423 3.82557 1.46863 4.57029 1.43569C5.37786 1.39982 5.62018 1.39082 7.66295 1.39082C9.70887 1.39082 9.95107 1.39982 10.7557 1.43569C11.5035 1.46863 11.9073 1.59423 12.1765 1.69892C12.5084 1.82148 12.8105 2.0159 13.0558 2.27013C13.31 2.51841 13.5044 2.81751 13.6271 3.14956C13.7318 3.41875 13.8574 3.82546 13.8903 4.57029C13.9262 5.37786 13.9352 5.62007 13.9352 7.66295C13.9352 9.70584 13.9262 9.94512 13.8903 10.7527Z" fill="#080415"/>
<path d="M7.6562 3.724C5.4848 3.724 3.72302 5.48566 3.72302 7.65718C3.72302 9.8287 5.4848 11.5904 7.6562 11.5904C9.82772 11.5904 11.5894 9.8287 11.5894 7.65718C11.5894 5.48566 9.82772 3.724 7.6562 3.724ZM7.6562 10.2085C6.24751 10.2085 5.10485 9.06599 5.10485 7.65718C5.10485 6.24837 6.24751 5.10582 7.6562 5.10582C9.06502 5.10582 10.2076 6.24837 10.2076 7.65718C10.2076 9.06599 9.06502 10.2085 7.6562 10.2085Z" fill="#080415"/>
<path d="M12.6633 3.56813C12.6633 4.0751 12.2523 4.48617 11.7452 4.48617C11.2382 4.48617 10.8271 4.0751 10.8271 3.56813C10.8271 3.06104 11.2382 2.65009 11.7452 2.65009C12.2523 2.65009 12.6633 3.06104 12.6633 3.56813Z" fill="#080415"/>
</svg>
