<svg width="409" height="234" viewBox="0 0 409 234" fill="none" xmlns="http://www.w3.org/2000/svg">
<g opacity="0.6">
<g opacity="0.1">
<rect width="63.715" height="37.1214" rx="18.5607" transform="matrix(-0.720068 -0.693903 0.7198 -0.694182 69.5361 108.414)" fill="#5D3BEE"/>
<rect width="168.404" height="37.1214" rx="18.5607" transform="matrix(-0.720068 -0.693903 0.7198 -0.694182 204.587 235.937)" fill="#5D3BEE"/>
<rect width="423.652" height="37.1214" rx="18.5607" transform="matrix(-0.720068 -0.693903 0.7198 -0.694182 339.325 279.314)" fill="#5D3BEE"/>
<rect width="157.968" height="37.1214" rx="18.5607" transform="matrix(-0.720068 -0.693903 0.7198 -0.694182 240.099 102.142)" fill="#5D3BEE"/>
<rect width="157.968" height="37.1214" rx="18.5607" transform="matrix(-0.720068 -0.693903 0.7198 -0.694182 442.743 299.383)" fill="#5D3BEE"/>
</g>
<g opacity="0.1">
<rect width="63.715" height="37.1214" rx="18.5607" transform="matrix(-0.720068 -0.693903 0.7198 -0.694182 233.536 90.4141)" fill="#5D3BEE"/>
<rect width="168.404" height="37.1214" rx="18.5607" transform="matrix(-0.720068 -0.693903 0.7198 -0.694182 368.591 217.937)" fill="#5D3BEE"/>
<rect width="423.652" height="37.1214" rx="18.5607" transform="matrix(-0.720068 -0.693903 0.7198 -0.694182 503.329 261.314)" fill="#5D3BEE"/>
<rect width="157.968" height="37.1214" rx="18.5607" transform="matrix(-0.720068 -0.693903 0.7198 -0.694182 404.103 84.1426)" fill="#5D3BEE"/>
</g>
</g>
</svg>
